<svg id="visual" viewBox="0 0 900 600" width="900" height="600" xmlns="http://www.w3.org/2000/svg" xmlns:xlink="http://www.w3.org/1999/xlink" version="1.1"><rect x="0" y="0" width="900" height="600" fill="#001220"></rect><path d="M0 452L37.5 437.5C75 423 150 394 225 377.3C300 360.7 375 356.3 450 351.2C525 346 600 340 675 338.3C750 336.7 825 339.3 862.5 340.7L900 342L900 601L862.5 601C825 601 750 601 675 601C600 601 525 601 450 601C375 601 300 601 225 601C150 601 75 601 37.5 601L0 601Z" fill="#001220"></path><path d="M0 468L37.5 454.8C75 441.7 150 415.3 225 413.2C300 411 375 433 450 434C525 435 600 415 675 406.2C750 397.3 825 399.7 862.5 400.8L900 402L900 601L862.5 601C825 601 750 601 675 601C600 601 525 601 450 601C375 601 300 601 225 601C150 601 75 601 37.5 601L0 601Z" fill="#00152b"></path><path d="M0 532L37.5 520.5C75 509 150 486 225 477.3C300 468.7 375 474.3 450 484.2C525 494 600 508 675 512.2C750 516.3 825 510.7 862.5 507.8L900 505L900 601L862.5 601C825 601 750 601 675 601C600 601 525 601 450 601C375 601 300 601 225 601C150 601 75 601 37.5 601L0 601Z" fill="#021736"></path><path d="M0 530L37.5 530.7C75 531.3 150 532.7 225 535.7C300 538.7 375 543.3 450 549.3C525 555.3 600 562.7 675 558.2C750 553.7 825 537.3 862.5 529.2L900 521L900 601L862.5 601C825 601 750 601 675 601C600 601 525 601 450 601C375 601 300 601 225 601C150 601 75 601 37.5 601L0 601Z" fill="#101640"></path></svg>